<svg xmlns:cc="http://creativecommons.org/ns#" xmlns:dc="http://purl.org/dc/elements/1.1/" xmlns:inkscape="http://www.inkscape.org/namespaces/inkscape" xmlns:rdf="http://www.w3.org/1999/02/22-rdf-syntax-ns#" xmlns:sodipodi="http://sodipodi.sourceforge.net/DTD/sodipodi-0.dtd" xmlns:svg="http://www.w3.org/2000/svg" xmlns="http://www.w3.org/2000/svg" xmlns:xlink="http://www.w3.org/1999/xlink" version="1.1" id="Layer_1" inkscape:version="1.0.2-2 (e86c870879, 2021-01-15)" x="0px" y="0px" viewBox="0 0 1080 1296" style="enable-background:new 0 0 1080 1296;" xml:space="preserve"><path id="path42" sodipodi:nodetypes="scccccccccccsccccccccsccccccccccccccccc" d="M518.5,336.5c-0.4,0-0.8,0-1.2,0  c-3.2,0.2-6.5,0.6-9.7,0.9c-74.8,7.5-140.1,36.4-190.7,92.2c-85.1,93.8-107.8,203-71.7,323.9c13.9,46.5,38.5,87.8,74,121.1  c9.5,9,19.4,17.2,29.6,24.7c26.4,19.6,49.7,31.8,85.5,43.9c32,10.4,66.2,15.7,102.5,16.2c49.8-1,91.5-11.1,128.1-26.4  c35.4-15,68-36.5,97.3-65.1c55.1-53.6,83.6-120.1,89.2-196.6c0.5-7.5-2.5-11.7-8.2-12.6s-9.6,2.4-11.5,9.7  c-10.6,40.4-30.9,75.4-62.5,102.7c-68.8,59.5-149,77.8-236.9,58.8c-77.8-16.8-133.7-62.1-163-137.2c-24.3-62.3-24.1-125.6-2.3-188.6  c17.2-49.9,46.6-91,91-120.5c19.3-12.8,40.3-21.7,62.7-27.5c6.8-1.7,9.6-5.8,8.7-11.5C528.5,339.6,524.6,336.6,518.5,336.5z   M434.8,374.3c-19.2,15.9-36.4,33.4-50.7,53.7c-37.7,53.6-54.2,113.4-52.2,178.6c1.7,54.4,17.3,104.3,49,148.8  c35.4,49.7,84.5,79.6,143.2,92.8c92,20.7,176.6,3.4,250.9-56.1c12.4-9.9,22.5-22.6,33.6-34.1c1.4-1.5,2.6-3.1,4-4.7  c0.5,0.3,1.1,0.6,1.6,0.9c-5.4,11.4-10.3,23.2-16.4,34.2C764.5,848,717.2,890,657.4,914.6c-34.6,13.9-69.5,22.5-100,24  c-81.2,6.9-155.5-17.8-221.2-75.2C306.9,837.9,287,805,272,769.3c-46.6-111.3-22.4-241.6,61.1-328.6c28.1-29.3,61.4-51.1,99.3-65.7  C433.2,374.7,434,374.5,434.8,374.3z" fill="#fff"/></svg>