<svg width="22" height="22" viewBox="0 0 22 22" fill="none" xmlns="http://www.w3.org/2000/svg">
<path d="M16 1V1.5V2.5V5V6V6.5V7.5V10V11V11.5V12.5V15V16V16.5V17.5V20V21H13.4225C13.2993 20.6119 13.039 20.2829 12.7142 20.0393C12.2577 19.697 11.65 19.5 11 19.5C10.35 19.5 9.74227 19.697 9.28579 20.0393C8.96099 20.2829 8.7007 20.6119 8.57746 21H6V1H16ZM12.1142 20.8393C12.1827 20.8907 12.2414 20.9446 12.2908 21H9.70915C9.75861 20.9446 9.81732 20.8907 9.88579 20.8393C10.1532 20.6388 10.5454 20.5 11 20.5C11.4546 20.5 11.8468 20.6388 12.1142 20.8393Z" stroke="black"/>
</svg>
